<?xml version="1.0" standalone="no"?>
<!DOCTYPE svg PUBLIC "-//W3C//DTD SVG 20010904//EN"
 "http://www.w3.org/TR/2001/REC-SVG-20010904/DTD/svg10.dtd">
<svg version="1.0" xmlns="http://www.w3.org/2000/svg"
 width="512.000000pt" height="512.000000pt" viewBox="0 0 512.000000 512.000000"
 preserveAspectRatio="xMidYMid meet">

<g transform="translate(0.000000,512.000000) scale(0.100000,-0.100000)"
fill="#000000" stroke="none">
<path d="M310 4820 l0 -300 2250 0 2250 0 0 300 0 300 -2250 0 -2250 0 0 -300z"/>
<path d="M246 4211 c-4 -5 -38 -143 -78 -308 -54 -227 -72 -315 -71 -368 1
-250 248 -419 533 -365 154 29 277 139 313 280 l14 54 7 -36 c19 -105 105
-211 211 -263 224 -110 512 13 571 244 l11 46 16 -55 c9 -31 34 -80 55 -110
145 -202 449 -223 624 -43 46 47 98 140 98 176 0 9 5 17 10 17 6 0 10 -8 10
-17 0 -36 52 -129 98 -176 175 -180 479 -159 624 43 21 30 46 79 55 110 l16
55 11 -46 c37 -144 170 -256 335 -282 132 -20 289 40 370 142 35 44 80 141 81
176 1 11 8 -4 16 -33 56 -211 275 -329 525 -282 132 25 255 122 300 238 38 98
32 158 -49 495 -40 165 -74 303 -78 308 -7 12 -4621 12 -4628 0z"/>
<path d="M867 2937 c-113 -57 -239 -81 -387 -74 -63 3 -130 10 -147 16 l-33
10 0 -1145 0 -1144 225 0 225 0 0 755 0 755 755 0 755 0 0 -755 0 -755 1280 0
1280 0 0 1144 0 1144 -37 -11 c-21 -6 -101 -11 -178 -11 -163 -1 -234 14 -361
75 l-81 38 -76 -38 c-213 -107 -440 -106 -658 4 l-67 34 -76 -39 c-108 -54
-199 -75 -326 -75 -127 0 -218 21 -325 75 l-76 38 -67 -33 c-219 -110 -446
-111 -659 -4 l-76 38 -81 -39 c-117 -58 -191 -75 -321 -74 -132 0 -208 18
-320 74 -44 22 -82 39 -85 38 -3 -1 -40 -19 -83 -41z m3501 -1279 l-3 -753
-752 -3 -753 -2 0 755 0 755 755 0 755 0 -2 -752z"/>
<path d="M3162 1658 l3 -453 450 0 450 0 0 450 0 450 -453 3 -452 2 2 -452z"/>
<path d="M1055 1798 c-3 -7 -4 -278 -3 -603 l3 -590 453 -3 452 -2 0 605 0
605 -450 0 c-351 0 -452 -3 -455 -12z"/>
<path d="M0 150 l0 -150 2560 0 2560 0 0 150 0 150 -2560 0 -2560 0 0 -150z"/>
</g>
</svg>
