<?xml version="1.0" standalone="no"?>
<!DOCTYPE svg PUBLIC "-//W3C//DTD SVG 20010904//EN"
 "http://www.w3.org/TR/2001/REC-SVG-20010904/DTD/svg10.dtd">
<svg version="1.0" xmlns="http://www.w3.org/2000/svg"
 width="512.000000pt" height="512.000000pt" viewBox="0 0 512.000000 512.000000"
 preserveAspectRatio="xMidYMid meet">

<g transform="translate(0.000000,512.000000) scale(0.100000,-0.100000)"
fill="#000000" stroke="none">
<path d="M300 4750 l0 -370 -99 -448 c-55 -246 -103 -474 -106 -507 -14 -131
44 -290 146 -399 l59 -64 0 -1331 0 -1331 -150 0 -150 0 0 -150 0 -150 2560 0
2560 0 0 150 0 150 -150 0 -150 0 0 1331 0 1331 59 64 c102 109 160 268 146
399 -3 33 -51 261 -106 507 l-99 448 0 370 0 370 -2260 0 -2260 0 0 -370z
m4220 -80 l0 -150 -1960 0 -1960 0 0 150 0 150 1960 0 1960 0 0 -150z m-3620
-892 c0 -501 1 -491 -79 -560 -66 -56 -168 -73 -264 -44 -82 24 -138 86 -157
171 -10 42 -2 82 81 461 l92 414 164 0 163 0 0 -442z m758 17 c3 -480 1 -494
-69 -564 -130 -130 -345 -62 -379 120 -11 58 -14 852 -3 863 4 3 106 5 227 4
l221 -3 3 -420z m752 -12 l0 -438 -24 -52 c-68 -144 -257 -173 -368 -56 -58
60 -58 63 -58 543 l0 440 225 0 225 0 0 -437z m750 -3 c0 -480 0 -483 -58
-543 -45 -48 -100 -71 -167 -71 -96 0 -163 44 -204 134 -20 43 -21 64 -21 483
l0 437 225 0 225 0 0 -440z m755 -5 c0 -492 2 -474 -73 -549 -103 -103 -288
-71 -353 61 -24 48 -24 48 -27 477 -2 236 0 436 2 443 5 11 49 13 228 11 l223
-3 0 -440z m724 31 c85 -385 91 -417 81 -464 -18 -83 -74 -143 -157 -168 -96
-29 -198 -12 -264 44 -80 69 -79 59 -79 560 l0 442 163 0 164 0 92 -414z
m-3434 -891 c126 -61 258 -69 392 -24 62 20 166 81 191 112 12 15 18 12 63
-23 69 -54 143 -88 237 -108 69 -14 92 -15 164 -4 96 14 205 61 266 116 l40
36 48 -40 c183 -151 446 -156 643 -12 l67 49 40 -35 c127 -112 329 -148 501
-91 62 20 166 81 191 111 12 15 20 11 77 -32 94 -71 215 -110 342 -110 l53 0
0 -1280 0 -1280 -1055 0 -1055 0 0 905 0 905 -755 0 -755 0 0 -905 0 -905
-150 0 -150 0 0 1280 0 1280 58 0 c127 1 271 50 357 124 l40 34 40 -35 c22
-19 72 -50 110 -68z m905 -1860 l0 -755 -452 2 -453 3 -3 740 c-1 407 0 746 3
753 3 9 104 12 455 12 l450 0 0 -755z"/>
<path d="M2710 1655 l0 -755 753 2 752 3 3 753 2 752 -755 0 -755 0 0 -755z
m1205 0 l0 -450 -450 0 -450 0 -3 453 -2 452 452 -2 453 -3 0 -450z"/>
</g>
</svg>
